<?xml version="1.0" encoding="UTF-8"?>
<svg version="1.1" xmlns="http://www.w3.org/2000/svg" width="5000" height="5000">
<g id="animated-body">
  <animateTransform attributeName="transform" type="translate" values="0 0; 10 -45; 0 0; 10 -45; 0 0" dur="0.8s" repeatCount="indefinite" additive="sum"/>
  <animateTransform attributeName="transform" type="rotate" values="4 2600 2400; 8 2600 2400; 4 2600 2400" dur="0.8s" repeatCount="indefinite" additive="sum"/>
<g id="upper-body">
<path d="M0 0 C1.38034424 0.69222656 1.38034424 0.69222656 2.78857422 1.3984375 C19.47382047 9.82887771 35.64244434 19.33448317 51 30 C51.63470215 30.43779785 52.2694043 30.8755957 52.92333984 31.32666016 C80.13074903 50.12439084 106.52504311 71.73534483 128 97 C128.81082031 97.93328125 129.62164063 98.8665625 130.45703125 99.828125 C145.00069287 116.6575597 157.6842053 134.81390261 168.85693359 154.03564453 C169.62298732 155.35210507 170.39421085 156.66557001 171.17041016 157.97607422 C221.47751542 243.16661636 228.81183797 347.84340522 199 563 C198.82404297 563.76006348 198.64808594 564.52012695 198.46679688 565.30322266 C188.84293992 606.69455653 172.90431632 643.75784942 146 677 C144.80697266 678.50046875 144.80697266 678.50046875 143.58984375 680.03125 C136.7294096 688.45057849 129.08970504 696.12165243 121.4375 703.8125 C120.90687958 704.34838745 120.37625916 704.8842749 119.82955933 705.43640137 C112.88769801 712.43143394 105.72839503 718.86517104 98 725 C96.9723462 725.86326474 95.9489423 726.73167022 94.93359375 727.609375 C78.67361709 741.55376813 60.51042032 754.23724014 42 765 C42.51502995 769.17966615 45.0447358 771.62299921 47.75 774.625 C74 804.69620253 74 804.69620253 74 813 C74.99 813.33 75.98 813.66 77 814 C78.35813495 816.33984669 79.54093618 818.62126389 80.6875 821.0625 C81.40063708 822.53795603 82.11418982 824.01321123 82.828125 825.48828125 C83.37049805 826.62064209 83.37049805 826.62064209 83.92382812 827.77587891 C85.23168416 830.47882093 86.59290924 833.15209157 87.95947266 835.82568359 C89.67448999 839.20006369 91.33714255 842.59969989 93 846 C93.34643555 846.69915527 93.69287109 847.39831055 94.04980469 848.11865234 C102.07302187 864.46237885 107.46872786 881.69744552 113 899 C118.26681023 895.1484357 123.29370079 891.12605894 128.1875 886.8125 C129.50076401 885.66474863 130.81457573 884.51762367 132.12890625 883.37109375 C132.77875488 882.80374512 133.42860352 882.23639648 134.09814453 881.65185547 C138.49048226 877.83689307 142.94902548 874.09958937 147.3984375 870.3515625 C149.03928736 868.9668453 150.67638805 867.57781109 152.3125 866.1875 C157.29738213 861.9537243 162.29415822 857.7437889 167.375 853.625 C172.49733524 849.45843577 177.47417378 845.13798719 182.45043945 840.79956055 C186.95939957 836.8775046 191.54698064 833.06968135 196.19140625 829.30859375 C199.50298366 826.58656003 202.75316116 823.79863676 206 821 C210.10235153 817.46394774 214.22801677 813.97136829 218.4375 810.5625 C222.87239317 806.96363971 227.19567786 803.25267936 231.5 799.5 C236.65855495 795.00256649 241.88156886 790.61004716 247.19921875 786.30078125 C250.46329783 783.61941084 253.6725072 780.87937137 256.875 778.125 C257.46458496 777.61791504 258.05416992 777.11083008 258.66162109 776.58837891 C259.54648193 775.82726807 259.54648193 775.82726807 260.44921875 775.05078125 C267.68816124 768.82477633 274.95865909 762.6391376 282.375 756.625 C286.82816535 753.00274597 291.17345154 749.27127822 295.5 745.5 C301.56976405 740.21018411 307.69693582 735.01207513 314 730 C314.55244385 729.43699692 315.1048877 728.87399384 315.67407227 728.29393005 C319.13781427 726.36702587 321.87054703 727.47845658 325.484375 728.49243164 C326.23056091 728.68522485 326.97674683 728.87801805 327.74554443 729.07665348 C329.34755282 729.49166003 330.94755673 729.91446761 332.5456543 730.34428787 C335.74512134 731.19906939 338.95750723 731.9975508 342.1708374 732.79831028 C346.53477314 733.88931949 350.89177649 735.00752952 355.25 736.12109375 C357.19951897 736.61807511 359.14906396 737.11495443 361.09863281 737.61174011 C366.31473062 738.94146795 371.53024955 740.27345242 376.74560547 741.60608673 C380.02950203 742.445037 383.31355779 743.28336144 386.59765625 744.121521 C417.36664838 751.9751163 448.11789376 759.89468098 478.85125732 767.88647461 C510.57826873 776.13625971 542.33566642 784.26511131 574.1015625 792.36376953 C577.7057579 793.28276495 581.30992214 794.2018825 584.9140625 795.12109375 C585.77030464 795.33944633 586.62654678 795.55779892 587.50873566 795.78276825 C600.68435839 799.14356554 613.85008852 802.53973319 627 806 C625.08400631 810.27606924 622.11181875 812.74728044 618.5625 815.6875 C617.93214844 816.21859375 617.30179688 816.7496875 616.65234375 817.296875 C612.08568683 821.13323658 607.46520461 824.90363145 602.8359375 828.6640625 C598.34735376 832.36127059 593.95085124 836.16434185 589.54296875 839.95703125 C584.59441284 844.21351925 579.6052146 848.42167006 574.61767578 852.63232422 C572.97091021 854.02459417 571.32689933 855.42005473 569.68359375 856.81640625 C564.69973752 861.04853633 559.70440728 865.25737398 554.625 869.375 C549.50266476 873.54156423 544.52582622 877.86201281 539.54956055 882.20043945 C535.03784637 886.12489097 530.44674445 889.93426783 525.80078125 893.69921875 C522.53670217 896.38058916 519.3274928 899.12062863 516.125 901.875 C515.53541504 902.38208496 514.94583008 902.88916992 514.33837891 903.41162109 C513.45351807 904.17273193 513.45351807 904.17273193 512.55078125 904.94921875 C505.31183876 911.17522367 498.04134091 917.3608624 490.625 923.375 C485.50266476 927.54156423 480.52582622 931.86201281 475.54956055 936.20043945 C471.04060043 940.1224954 466.45301936 943.93031865 461.80859375 947.69140625 C458.49701634 950.41343997 455.24683884 953.20136324 452 956 C447.89764847 959.53605226 443.77198323 963.02863171 439.5625 966.4375 C435.12760683 970.03636029 430.80432214 973.74732064 426.5 977.5 C421.34144505 981.99743351 416.11843114 986.38995284 410.80078125 990.69921875 C407.53670217 993.38058916 404.3274928 996.12062863 401.125 998.875 C400.53541504 999.38208496 399.94583008 999.88916992 399.33837891 1000.41162109 C398.74847168 1000.91902832 398.15856445 1001.42643555 397.55078125 1001.94921875 C390.31183876 1008.17522367 383.04134091 1014.3608624 375.625 1020.375 C370.50266476 1024.54156423 365.52582622 1028.86201281 360.54956055 1033.20043945 C356.03784637 1037.12489097 351.44674445 1040.93426783 346.80078125 1044.69921875 C343.53670217 1047.38058916 340.3274928 1050.12062863 337.125 1052.875 C336.53541504 1053.38208496 335.94583008 1053.88916992 335.33837891 1054.41162109 C334.74847168 1054.91902832 334.15856445 1055.42643555 333.55078125 1055.94921875 C326.28968997 1062.19427321 318.99446571 1068.3963115 311.5625 1074.4375 C306.14143044 1078.8514623 300.84158026 1083.39782805 295.54296875 1087.95703125 C290.59441284 1092.21351925 285.6052146 1096.42167006 280.61767578 1100.63232422 C278.97091021 1102.02459417 277.32689933 1103.42005473 275.68359375 1104.81640625 C270.69973752 1109.04853633 265.70440728 1113.25737398 260.625 1117.375 C255.50266476 1121.54156423 250.52582622 1125.86201281 245.54956055 1130.20043945 C241.04060043 1134.1224954 236.45301936 1137.93031865 231.80859375 1141.69140625 C228.49701436 1144.4134416 225.24689272 1147.20142301 222 1150 C216.89369923 1154.39989552 211.73565322 1158.71905622 206.5 1162.96484375 C203.64718062 1165.28721702 200.82259173 1167.64100255 198 1170 C205.21149481 1192.66636932 212.73628967 1215.2246049 220.375 1237.75 C220.72595104 1238.7849164 220.72595104 1238.7849164 221.083992 1239.8407402 C223.26084159 1246.25925018 225.43910014 1252.67728152 227.61868286 1259.09486389 C230.93101489 1268.84783009 234.23772428 1278.60268198 237.5390625 1288.359375 C237.76473152 1289.02630245 237.99040054 1289.6932299 238.22290802 1290.38036728 C239.36020396 1293.74156401 240.49738922 1297.10279818 241.63452148 1300.46405029 C243.69540812 1306.55567212 245.75721759 1312.6469816 247.81897736 1318.73830795 C248.5074069 1320.77223917 249.19581456 1322.80617779 249.88421631 1324.84011841 C252.83963937 1333.5721113 255.7954784 1342.30396333 258.75150108 1351.03575325 C260.79275986 1357.06547087 262.83390553 1363.09522676 264.875 1369.125 C265.10001568 1369.78973454 265.32503136 1370.45446907 265.55686569 1371.13934708 C272.55678653 1391.81853538 279.55019025 1412.49992053 286.54000854 1433.18252563 C294.62413548 1457.10312202 302.71193815 1481.02246351 310.8125 1504.9375 C311.02871506 1505.57583267 311.24493011 1506.21416534 311.46769714 1506.87184143 C316.20362649 1520.85341999 320.94253715 1534.83398429 325.6875 1548.8125 C326.06926895 1549.93718185 326.4510379 1551.06186371 326.84437561 1552.22062683 C327.61492878 1554.49062107 328.38548237 1556.76061517 329.15603638 1559.03060913 C329.53766937 1560.15488312 329.91930237 1561.2791571 330.3125 1562.4375 C330.6938913 1563.56104889 331.07528259 1564.68459778 331.4682312 1565.8421936 C339.0489667 1588.176793 346.60246865 1610.52056067 354.15255928 1632.86553288 C359.46012929 1648.57346084 364.77014931 1664.28054831 370.08984375 1679.984375 C370.33422935 1680.70581066 370.57861496 1681.42724632 370.83040619 1682.17054367 C373.16528856 1689.06297724 375.50067685 1695.95523923 377.83673382 1702.84727478 C378.47655708 1704.73501284 379.11627797 1706.6227856 379.7559967 1708.51055908 C380.52747633 1710.78711546 381.2991384 1713.06361002 382.07102966 1715.34002686 C382.74271017 1717.32217171 383.41295876 1719.30480265 384.08145142 1721.2880249 C384.68568599 1723.07200144 385.29712855 1724.85355562 385.91635132 1726.63238525 C386.33033676 1727.83360016 386.33033676 1727.83360016 386.75268555 1729.05908203 C386.99464157 1729.75180206 387.2365976 1730.44452209 387.48588562 1731.15823364 C388 1733 388 1733 388 1736 C382.81460371 1735.42609398 377.91319291 1734.59529804 372.84985352 1733.29199219 C372.17713284 1733.12026898 371.50441216 1732.94854578 370.811306 1732.77161884 C368.58260127 1732.20141317 366.35577957 1731.62418794 364.12890625 1731.046875 C362.52624337 1730.6352058 360.9234725 1730.22395679 359.32060242 1729.81309509 C354.97702552 1728.69833265 350.63508049 1727.57733164 346.29341125 1726.45516586 C342.61095148 1725.50429464 338.92751088 1724.55725538 335.24404716 1723.61028194 C307.92311082 1716.58635506 280.6180836 1709.50076107 253.31567383 1702.4052124 C233.05038491 1697.13891602 212.77635083 1691.90837124 192.48828125 1686.73046875 C191.44961536 1686.46537947 190.41094948 1686.20029018 189.34080887 1685.92716789 C179.17358678 1683.33279245 169.00554264 1680.74166048 158.83633232 1678.15508938 C146.88771488 1675.11573454 134.94203354 1672.06512443 123 1669 C122.02557701 1668.75010818 121.05115402 1668.50021637 120.04720306 1668.24275208 C114.10451625 1666.71801432 108.16369221 1665.1863196 102.22520256 1663.64531326 C100.3582425 1663.16168441 98.49078259 1662.67998063 96.62280464 1662.20029831 C94.05169227 1661.53953701 91.48255826 1660.87157604 88.91381836 1660.20166016 C88.15223104 1660.00752155 87.39064373 1659.81338295 86.60597801 1659.61336136 C83.28837564 1658.74042656 80.88317131 1657.9221142 78 1656 C77.12602234 1654.21311951 77.12602234 1654.21311951 76.4128418 1652.01733398 C76.13730469 1651.18701157 75.86176758 1650.35668915 75.57788086 1649.50120544 C75.14294312 1648.13742516 75.14294312 1648.13742516 74.69921875 1646.74609375 C74.38710449 1645.7970668 74.07499023 1644.84803986 73.75341797 1643.87025452 C73.07789186 1641.81246078 72.40713678 1639.75309614 71.74057007 1637.69238281 C70.30636535 1633.25946955 68.84891219 1628.83430633 67.39302063 1624.40847778 C66.64889235 1622.14542334 65.9059715 1619.88197152 65.16423035 1617.61813354 C62.33390617 1608.98377032 59.43019352 1600.37721205 56.47375488 1591.78533936 C49.50567383 1571.53181824 42.66765796 1551.23432139 35.82320023 1530.938797 C33.16766266 1523.06454097 30.5115765 1515.19046995 27.85546875 1507.31640625 C27.56408461 1506.45257198 27.27270046 1505.58873772 26.9724865 1504.69872665 C21.24245389 1487.71216053 15.50150267 1470.72930824 9.75 1453.75 C9.53699753 1453.1211578 9.32399506 1452.4923156 9.10453796 1451.84441757 C1.1015973 1428.2187313 -6.93613604 1404.60495758 -15 1381 C-17.36913032 1380.76483608 -17.36913032 1380.76483608 -19.57421875 1383.5625 C-20.6175061 1384.70330332 -21.65501648 1385.84940951 -22.6875 1387 C-23.44450195 1387.82951172 -23.44450195 1387.82951172 -24.21679688 1388.67578125 C-26.95923046 1391.69211148 -29.64570166 1394.7498589 -32.3046875 1397.83984375 C-36.47697983 1402.61952789 -40.94213555 1407.08855905 -45.4375 1411.5625 C-46.64889648 1412.77969727 -46.64889648 1412.77969727 -47.88476562 1414.02148438 C-52.76002772 1418.88888948 -57.7451806 1423.54585175 -63 1428 C-63.63574951 1428.54245361 -64.27149902 1429.08490723 -64.92651367 1429.64379883 C-121.82291989 1477.87941105 -191.5084035 1509.13427153 -265.41796875 1519.55712891 C-267.97678682 1519.86773823 -267.97678682 1519.86773823 -270 1521 C-269.64284912 1521.61294922 -269.28569824 1522.22589844 -268.91772461 1522.85742188 C-261.8943519 1534.96020816 -255.05245962 1546.93041438 -250 1560 C-249.31357422 1561.76923828 -249.31357422 1561.76923828 -248.61328125 1563.57421875 C-246.00303803 1570.82489436 -244.22238624 1578.07116533 -242.75 1585.625 C-242.58669189 1586.45926514 -242.42338379 1587.29353027 -242.25512695 1588.15307617 C-239.99272043 1600.54990681 -239.80191961 1613.06246434 -239.8203125 1625.62890625 C-239.82049503 1626.44514528 -239.82067757 1627.26138432 -239.82086563 1628.10235786 C-239.85135288 1653.09388569 -240.85180328 1678.06870773 -241.7376709 1703.04119873 C-241.96423768 1709.46935155 -242.18289133 1715.89777296 -242.40234375 1722.32617188 C-242.79324268 1733.74303875 -243.19295822 1745.15957402 -243.59753036 1756.57596397 C-243.8728163 1764.35588618 -244.14277217 1772.13597205 -244.4085598 1779.91622448 C-244.58497472 1785.07027737 -244.76372245 1790.22424787 -244.94287491 1795.37820625 C-245.02672159 1797.80483201 -245.109601 1800.23149142 -245.19143295 1802.65818596 C-245.30476993 1806.01384144 -245.42175706 1809.36935192 -245.53955078 1812.72485352 C-245.58730337 1814.17830138 -245.58730337 1814.17830138 -245.63602066 1815.66111183 C-245.87989475 1822.46211162 -246.38401938 1829.22292848 -247 1836 C-246.21262451 1836.15782959 -245.42524902 1836.31565918 -244.61401367 1836.47827148 C-227.8916201 1839.96556454 -214.45584004 1850.04636825 -204.40234375 1863.6640625 C-201.44197881 1868.59525534 -199 1874.1990244 -199 1880 C-198.21496094 1880.06058594 -197.42992188 1880.12117188 -196.62109375 1880.18359375 C-187.58510638 1880.90425532 -187.58510638 1880.90425532 -183.5625 1881.5625 C-182.386875 1881.706875 -181.21125 1881.85125 -180 1882 C-178.53433594 1882.22236328 -178.53433594 1882.22236328 -177.0390625 1882.44921875 C-171.86435065 1882.91361597 -168.43378868 1883.08777033 -164.18359375 1879.86328125 C-161.58829323 1877.0223187 -159.26919886 1874.10649684 -157 1871 C-155.8566568 1869.51890771 -154.71103215 1868.03957209 -153.5625 1866.5625 C-152.73298828 1865.47775391 -152.73298828 1865.47775391 -151.88671875 1864.37109375 C-132.50713866 1840.01621774 -106.82307144 1823.65423543 -75.69628906 1819.29296875 C-48.82080649 1816.37277868 -26.10022351 1822.43687277 -4.6484375 1838.79296875 C21.99893836 1860.87356818 33.58047446 1897.28848325 40 1930 C40.16661133 1930.83837402 40.33322266 1931.67674805 40.50488281 1932.54052734 C42.18071178 1941.32041388 43.13773092 1949.79143119 42.828125 1958.7421875 C42.79986885 1959.74913666 42.79986885 1959.74913666 42.77104187 1960.77642822 C42.67359733 1964.1245534 42.52070204 1967.44279997 42.2746582 1970.78515625 C42.13121442 1974.43348188 42.10804649 1977.45616166 43 1981 C45.334396 1983.4635055 47.61185212 1984.94605218 50.56176758 1986.60791016 C53.58463523 1988.33379294 54.95177992 1990.1920359 56.5625 1993.25 C57.24505859 1994.49523438 57.24505859 1994.49523438 57.94140625 1995.765625 C61.36134024 2002.98408347 61.05612173 2011.80866489 59.12890625 2019.45703125 C54.5983567 2031.74150496 47.95613811 2041.56321047 39 2051 C37.84827709 2052.34916112 36.70207082 2053.70305904 35.5625 2055.0625 C-19.86788578 2118.3391961 -121.53403419 2151.08303896 -217.62744141 2164.58398438 C-261.66537356 2167.48045015 -313.17464355 2165.36014252 -348.125 2135.1640625 C-355.95702344 2127.89570741 -361.22003194 2118.77330884 -362 2108 C-362.25422057 2096.32174249 -358.65610779 2086.7094649 -351 2078 C-351.64066406 2076.99324219 -352.28132813 2075.98648438 -352.94140625 2074.94921875 C-375.29734855 2038.9664671 -379.47636093 1992.10609979 -370.1875 1951.1875 C-367.69989761 1940.92922469 -364.00551229 1931.32715206 -358.8203125 1922.12109375 C-357.81414095 1919.51942159 -358.00055332 1918.57568845 -359 1916 C-360.18325402 1913.53866672 -361.46241808 1911.14071351 -362.74609375 1908.73046875 C-367.1974878 1899.0372462 -367.80847845 1887.20556758 -364.375 1877.0625 C-361.24370279 1869.7045048 -356.93621798 1863.37086389 -351 1858 C-350.2265625 1857.22076172 -350.2265625 1857.22076172 -349.4375 1856.42578125 C-342.57663225 1849.84585421 -329.72825607 1841 -320 1841 C-320.00638992 1840.04508163 -320.01277985 1839.09016327 -320.0193634 1838.10630798 C-320.06582979 1827.97598567 -319.82410116 1817.87643371 -319.44921875 1807.75390625 C-319.38984272 1806.09234033 -319.33073854 1804.43076467 -319.2718811 1802.7691803 C-319.14570933 1799.21994497 -319.01789592 1795.67077411 -318.88882446 1792.12164307 C-318.68333335 1786.46387999 -318.48318339 1780.80593516 -318.28393555 1775.14794922 C-317.71694358 1759.06731187 -317.14456108 1742.98687276 -316.56347656 1726.90673828 C-316.2417532 1718.00253616 -315.92531588 1709.09816069 -315.61419773 1700.19358158 C-315.45039656 1695.51205268 -315.28415603 1690.83064402 -315.11117554 1686.14944458 C-314.43192864 1667.72940694 -313.87492669 1649.31562787 -313.80339622 1630.88181686 C-313.796579 1629.17652268 -313.78679648 1627.4712371 -313.77367592 1625.76597977 C-313.64331763 1606.57208003 -316.33914903 1590.1154387 -325.4375 1572.9375 C-325.95828125 1571.9487085 -326.4790625 1570.95991699 -327.015625 1569.94116211 C-331.75227476 1561.13554368 -337.02135334 1552.69514725 -343.06469727 1544.72216797 C-344.64438514 1542.50020256 -345.99442148 1540.30746595 -347.35522461 1537.95361328 C-352.69604411 1529.12590779 -352.69604411 1529.12590779 -361.52587891 1524.49829102 C-365.90981454 1523.84093777 -370.27687733 1523.72590907 -374.7048645 1523.74084473 C-377.63642147 1523.75023683 -380.55275011 1523.66641105 -383.48217773 1523.55761719 C-387.45666539 1523.41192955 -391.43033512 1523.2939732 -395.40625 1523.1953125 C-403.17404264 1522.96533191 -410.85205911 1522.18476358 -418.5625 1521.25 C-419.25444458 1521.16814453 -419.94638916 1521.08628906 -420.65930176 1521.00195312 C-452.4065215 1517.21321294 -483.77817623 1511.3203745 -514.9854126 1504.44165039 C-520.31883473 1503.27242439 -525.66009185 1502.13915212 -531 1501 C-531.34442139 1502.28233521 -531.34442139 1502.28233521 -531.69580078 1503.59057617 C-547.22998234 1561.13231122 -565.35218731 1617.54287273 -592 1671 C-592.59095459 1672.18795166 -592.59095459 1672.18795166 -593.19384766 1673.39990234 C-602.36883428 1691.6810733 -613.23715068 1709.01349913 -626 1725 C-626.43989258 1725.55558594 -626.87978516 1726.11117187 -627.33300781 1726.68359375 C-653.1279419 1759.00962685 -687.20142089 1783.16535748 -729 1788 C-733.40071623 1788.27545418 -737.77894859 1788.33492396 -742.1875 1788.3125 C-743.36586426 1788.30686035 -744.54422852 1788.3012207 -745.75830078 1788.29541016 C-755.44345644 1788.16175792 -764.58945688 1787.27595274 -774 1785 C-774.82661133 1784.80132324 -775.65322266 1784.60264648 -776.50488281 1784.39794922 C-789.30326508 1781.22332263 -801.18323403 1776.82049377 -813 1771 C-813.81936035 1770.60184082 -814.6387207 1770.20368164 -815.48291016 1769.79345703 C-834.31121791 1760.56726402 -851.69047666 1749.16009814 -868 1736 C-869.35544922 1734.91525391 -869.35544922 1734.91525391 -870.73828125 1733.80859375 C-876.01876654 1729.53682635 -881.20617664 1725.15570036 -886.375 1720.75 C-886.95822021 1720.2545166 -887.54144043 1719.7590332 -888.14233398 1719.24853516 C-891.58357027 1716.29890406 -894.83661899 1713.24631609 -898 1710 C-901.45255686 1711.342661 -904.78512479 1712.83735083 -908.125 1714.4375 C-919.2569287 1719.49611103 -930.52604296 1722.51948472 -942.5 1719.25 C-945.76209705 1718.49604832 -945.76209705 1718.49604832 -949 1719 C-953.08628989 1722.26172565 -955.93454098 1725.98368166 -958.84570312 1730.29638672 C-959.84945276 1731.77780909 -960.92682385 1733.20882258 -962.015625 1734.62890625 C-964.79169376 1738.35843787 -966.54485921 1740.99952953 -966.37182617 1745.83544922 C-965.5138138 1750.83028684 -963.24773895 1755.47032546 -961.3125 1760.125 C-957.9668689 1768.48112457 -954.97869946 1776.72581688 -952.9375 1785.5 C-952.74647705 1786.3161377 -952.5554541 1787.13227539 -952.35864258 1787.97314453 C-946.43361823 1815.04702049 -951.30783262 1844.28816064 -964.9140625 1868.390625 C-969.28686482 1875.18501905 -974.34096781 1881.24339829 -980 1887 C-981.02867187 1888.04800781 -981.02867187 1888.04800781 -982.078125 1889.1171875 C-997.73172743 1904.01709796 -1019.76448586 1910.9960287 -1041 1912 C-1041.89976562 1912.05285156 -1042.79953125 1912.10570313 -1043.7265625 1912.16015625 C-1080.35523843 1913.27158045 -1120.21580855 1900.33394579 -1150.93359375 1880.84765625 C-1154.79611547 1878.51994203 -1154.79611547 1878.51994203 -1159 1877 C-1161.14742657 1877.56954034 -1161.14742657 1877.56954034 -1163.0625 1878.8125 C-1169.37840629 1882.47697632 -1175.55614707 1882.95873212 -1182.6796875 1881.421875 C-1194.12703228 1877.85471374 -1202.16889594 1869.22515878 -1208 1859 C-1245.01275408 1786.9311132 -1228.33294321 1682.95671077 -1205.04394531 1608.96240234 C-1187.76928084 1555.4467449 -1158.91749337 1492.14858812 -1106.1640625 1464.92138672 C-1094.56018948 1459.17453188 -1082.5854871 1456.8183659 -1069.75 1460.0625 C-1061.47495127 1462.96148911 -1053.81111702 1468.63547741 -1049 1476 C-1048.23420923 1477.7244339 -1047.51375129 1479.46959504 -1046.8359375 1481.23046875 C-1046.48837402 1482.12531982 -1046.14081055 1483.0201709 -1045.78271484 1483.94213867 C-1045.52441895 1484.62123291 -1045.26612305 1485.30032715 -1045 1486 C-1044.40799805 1486.0093457 -1043.81599609 1486.01869141 -1043.20605469 1486.02832031 C-1000.4926282 1486.86777494 -958.47984785 1502.47775576 -927 1532 C-926.44054688 1532.52239258 -925.88109375 1533.04478516 -925.3046875 1533.58300781 C-918.32786489 1540.16484214 -912.06035845 1546.78776114 -907 1555 C-906.44570312 1555.8765625 -905.89140625 1556.753125 -905.3203125 1557.65625 C-904 1560 -904 1560 -904 1562 C-903.01 1561.67 -902.02 1561.34 -901 1561 C-889.3062171 1560.25753759 -879.56628812 1563.31905551 -870 1570 C-868.948125 1570.721875 -867.89625 1571.44375 -866.8125 1572.1875 C-855.32375672 1583.67624328 -851.78578881 1598.58098501 -851.74462891 1614.37329102 C-851.8371774 1621.28070247 -852.89920297 1627.96486865 -854.1484375 1634.74609375 C-854.27307373 1635.44250977 -854.39770996 1636.13892578 -854.52612305 1636.85644531 C-855 1639 -855 1639 -855.79614258 1641.27636719 C-856.56684214 1643.64767293 -857.05298483 1645.50323087 -857 1648 C-855.19530997 1651.09047329 -852.68560925 1653.12555428 -849.9375 1655.375 C-849.1959668 1656.02146484 -848.45443359 1656.66792969 -847.69042969 1657.33398438 C-846.1820221 1658.64209203 -844.66198056 1659.93690985 -843.13037109 1661.21777344 C-841.30489651 1662.74492957 -839.51474296 1664.29935882 -837.73828125 1665.8828125 C-810.53625391 1689.7068103 -775.39973185 1716.14492781 -737.3828125 1714.41796875 C-717.30702027 1712.8673288 -700.87762716 1699.55255177 -688 1685 C-640.83518836 1629.042016 -621.06667469 1550.04911802 -602 1481 C-608.63115836 1478.27562222 -615.32560644 1475.77343419 -622.07128906 1473.34790039 C-647.59354736 1464.15262579 -672.51920168 1453.70200106 -697 1442 C-697.88977539 1441.57509277 -698.77955078 1441.15018555 -699.69628906 1440.71240234 C-737.45674671 1422.55196875 -772.85909994 1399.86469212 -805 1373 C-805.5161084 1372.57025879 -806.0322168 1372.14051758 -806.56396484 1371.69775391 C-826.3511634 1355.1719867 -844.99159028 1337.248475 -861 1317 C-861.84949219 1315.99195312 -862.69898438 1314.98390625 -863.57421875 1313.9453125 C-891.1723078 1280.98146259 -911.9423251 1241.47579141 -926 1201 C-926.6180921 1199.27589912 -927.23657144 1197.551937 -927.85546875 1195.828125 C-943.90491503 1150.31529263 -950.25173954 1101.09508643 -951 1053 C-951.02046387 1052.17886719 -951.04092773 1051.35773438 -951.06201172 1050.51171875 C-952.58395968 989.03005234 -942.71234084 926.85423715 -928.53131104 867.23529053 C-928.02253335 865.09480057 -927.51937318 862.95305675 -927.01708984 860.81103516 C-908.49190708 782.28367445 -871.4589513 700.53616222 -806.7578125 649.19921875 C-803.9054936 646.92463583 -801.14506241 644.56130007 -798.375 642.1875 C-770.54644785 619.03871721 -718.52581808 581 -681 581 C-681.35078613 580.36425049 -681.70157227 579.72850098 -682.06298828 579.07348633 C-707.10530963 533.52761228 -728.3046884 486.04952631 -735 434 C-735.09498779 433.31075439 -735.18997559 432.62150879 -735.2878418 431.91137695 C-745.3369154 348.50134762 -706.50587382 254.70051169 -641 125 C-640.49307617 124.16807129 -639.98615234 123.33614258 -639.46386719 122.47900391 C-624.63507253 98.21238965 -607.84577777 75.29927208 -589 54 C-588.20207031 53.08992188 -587.40414062 52.17984375 -586.58203125 51.2421875 C-580.74245319 44.72488417 -574.6155833 38.48929094 -568.45355225 32.27832031 C-567.04332142 30.85618705 -565.63707405 29.43010712 -564.23095703 28.00390625 C-558.13166168 21.89697724 -551.74520085 16.37741261 -545 11 C-543.97254096 10.13650347 -542.94913236 9.26810986 -541.93359375 8.390625 C-464.99661978 -57.58975331 -361.70929895 -78.8712527 0 0 Z M-273.64178467 169.48788452 C-274.47475893 170.31647653 -275.3077332 171.14506854 -276.16594911 171.9987694 C-278.45646369 174.27830853 -280.74478529 176.56002146 -283.0321157 178.84275484 C-285.50752912 181.31216479 -287.98573299 183.77877205 -290.46348572 186.24583435 C-296.4318508 192.18979849 -302.39537944 198.13860305 -308.35802019 204.08830875 C-310.0434071 205.76997726 -311.72892092 207.45151847 -313.41447926 209.13301516 C-323.89682173 219.5901345 -334.37757184 230.04884695 -344.85354233 240.51235008 C-347.273924 242.92980247 -349.6943219 245.34723862 -352.11474609 247.76464844 C-352.71626764 248.36542393 -353.31778918 248.96619943 -353.93753865 249.58518024 C-363.69378234 259.32875536 -373.46027271 269.06199293 -383.23097071 278.79107122 C-393.27510145 288.7927687 -403.30976995 298.80388184 -413.3353188 308.82420599 C-418.95954165 314.44501834 -424.58784528 320.06160735 -430.22682953 325.66761398 C-435.02547355 330.43823856 -439.81550766 335.21730118 -444.59456769 340.0075476 C-447.03132481 342.44948463 -449.47191063 344.88723304 -451.92363548 347.31414986 C-454.58286419 349.95072556 -457.22619289 352.60229625 -459.8661499 355.25814819 C-460.63890408 356.01702029 -461.41165826 356.77589238 -462.20782924 357.5577606 C-468.8212476 364.26963097 -472.57285186 370.82062593 -472.5625 380.4375 C-472.58441406 381.63246094 -472.60632812 382.82742188 -472.62890625 384.05859375 C-471.08070496 393.76129627 -465.36193278 400.36831214 -458.55607605 407.07211304 C-457.70806956 407.92721391 -456.86006307 408.78231479 -455.98635942 409.66332781 C-453.65041299 412.0137451 -451.30388889 414.35256122 -448.95200241 416.68696189 C-446.41049723 419.21502663 -443.88351278 421.75753829 -441.354599 424.29818726 C-436.40667291 429.26444348 -431.44546344 434.21721856 -426.47938343 439.1653146 C-422.44273688 443.18790888 -418.41121278 447.2155721 -414.38326454 451.24687576 C-413.80897664 451.82164111 -413.23468873 452.39640646 -412.64299816 452.98858894 C-411.47622124 454.15639224 -410.30945881 455.32421002 -409.14271072 456.49204214 C-398.83739375 466.80591652 -388.51952794 477.10714686 -378.19506836 487.40185547 C-368.18436837 497.38370916 -358.18462606 507.37638344 -348.19604492 517.38037109 C-337.30792697 528.2852601 -326.41346446 539.18373954 -315.50821096 550.0714947 C-314.34486341 551.23299792 -313.18152066 552.39450595 -312.01818275 553.55601883 C-311.44584845 554.12744104 -310.87351415 554.69886325 -310.28383639 555.28760128 C-306.25695645 559.30888234 -302.23453912 563.3345942 -298.2137661 567.36198044 C-293.31275961 572.270728 -288.40455558 577.17214322 -283.48712846 582.06444304 C-280.97986998 584.55922587 -278.47585954 587.05704706 -275.98043823 589.56367493 C-273.27272574 592.28331707 -270.5496361 594.98722204 -267.82487488 597.68978882 C-267.04227096 598.4806335 -266.25966705 599.27147818 -265.45334786 600.08628786 C-258.53675959 606.89925093 -252.14329629 610.47040549 -242.375 611.3125 C-232.70198063 611.09431159 -225.82952071 606.60464925 -218.99609375 600.12109375 C-216.8574452 597.96629208 -216.8574452 597.96629208 -215 595 C-215.7734375 594.35933594 -216.546875 593.71867187 -217.34375 593.05859375 C-229.84327486 582.68793195 -229.84327486 582.68793195 -235 578 C-235.62003906 577.44570312 -236.24007812 576.89140625 -236.87890625 576.3203125 C-259.52467866 555.00126211 -274.87762893 520.93183627 -276.12255859 489.94995117 C-276.47094108 475.06557326 -276.5167657 460.52163471 -273 446 C-272.8443457 445.32179199 -272.68869141 444.64358398 -272.52832031 443.94482422 C-268.48547732 426.80914141 -260.61573705 410.04220267 -250 396 C-249.33871094 395.11828125 -248.67742187 394.2365625 -247.99609375 393.328125 C-238.04286483 380.64371539 -226.63304295 369.62019324 -213 361 C-212.09241943 360.42258057 -212.09241943 360.42258057 -211.16650391 359.83349609 C-194.52968006 349.4403795 -176.31063671 343.13398104 -157 340 C-156.09636719 339.84917969 -155.19273437 339.69835938 -154.26171875 339.54296875 C-151.82881575 339.22782587 -149.45260424 339.08408929 -147 339 C-146.05930664 338.96132812 -146.05930664 338.96132812 -145.09960938 338.921875 C-108.04194892 337.57309755 -71.6909091 348.75926966 -44 374 C-35.37759513 382.02334825 -27.7113672 390.30580293 -21 400 C-17.59155912 398.62090338 -16.33262465 397.39436506 -14.8125 394.0625 C-14.32716797 393.02802734 -14.32716797 393.02802734 -13.83203125 391.97265625 C-11.11768429 385.53723271 -10.9431331 378.19563426 -12.6484375 371.42578125 C-16.41380956 362.20544709 -24.54638953 355.30476342 -31.45664978 348.3961792 C-32.2818638 347.56728849 -33.10707783 346.73839777 -33.95729834 345.88438916 C-36.22736442 343.6052725 -38.49961073 341.32835728 -40.7728709 339.05242729 C-43.23205779 336.58930633 -45.6884191 334.12336993 -48.1452179 331.65786743 C-54.06411048 325.71930964 -59.9877624 319.78551045 -65.91203603 313.85232151 C-68.70612453 311.05383858 -71.49972811 308.25487166 -74.2933979 305.45597076 C-83.58456272 296.14781272 -92.87697542 286.84090311 -102.17301083 277.5376091 C-104.57946139 275.1292489 -106.98590657 272.72088333 -109.39233398 270.3125 C-109.99038117 269.71396907 -110.58842836 269.11543814 -111.2045982 268.49876991 C-120.90541651 258.78964027 -130.59767779 249.07201499 -140.28641861 239.3508347 C-150.2458987 229.35828179 -160.21289505 219.3732764 -170.18732744 209.39564824 C-175.78274613 203.79806597 -181.3748377 198.19724646 -186.95853996 192.58797455 C-191.70981906 187.81498648 -196.46787327 183.0488853 -201.23487919 178.2916021 C-203.66527157 175.86575218 -206.09233664 173.43680562 -208.51073074 170.99898911 C-211.13678863 168.35527245 -213.77489248 165.72418684 -216.41636658 163.09588623 C-217.17426056 162.327023 -217.93215455 161.55815977 -218.71301502 160.76599765 C-224.19451974 155.35025416 -230.04428744 150.77616708 -238 150 C-238.64453125 149.93683594 -239.2890625 149.87367188 -239.953125 149.80859375 C-254.90113635 148.99847425 -263.87719028 159.72965331 -273.64178467 169.48788452 Z M-447.72370911 771.56980896 C-448.54135245 772.38307005 -449.35899578 773.19633113 -450.20141619 774.03423649 C-452.91111168 776.73069192 -455.61732545 779.43061285 -458.32348633 782.13061523 C-460.27698552 784.07671513 -462.23117274 786.02212373 -464.18527222 787.96762085 C-470.02078311 793.77877968 -475.8515015 799.59473502 -481.6813176 805.41160616 C-483.32987209 807.05643947 -484.97855196 808.701147 -486.62727523 810.34581113 C-496.88796543 820.58128192 -507.14706135 830.81834779 -517.40138721 841.06019497 C-519.76814146 843.42402012 -522.13491204 845.78782892 -524.50170898 848.15161133 C-525.08987476 848.73903105 -525.67804053 849.32645077 -526.28402951 849.93167109 C-535.8260772 859.46104699 -545.37837298 868.98008198 -554.9348673 878.49496781 C-564.76550221 888.28315273 -574.58665848 898.08076869 -584.3987028 907.88758999 C-589.90052515 913.3860044 -595.40641305 918.88020742 -600.92301369 924.36379814 C-605.61655678 929.02929915 -610.30146027 933.70326388 -614.97541354 938.38839345 C-617.35767231 940.77582583 -619.74495387 943.15756983 -622.14084816 945.53136253 C-624.74271799 948.11053354 -627.32862302 950.70474749 -629.91120911 953.3032074 C-630.66412241 954.04223862 -631.41703572 954.78126984 -632.19276458 955.54269594 C-638.89365122 962.34522248 -643.58324441 969.95704392 -644.25 979.625 C-644.06499027 987.31001956 -642.19284076 993.08641573 -636.91424561 998.76754189 C-636.10651451 999.63901399 -635.29878342 1000.51048609 -634.46657562 1001.40836644 C-630.79342729 1005.2677472 -627.07571152 1009.07570112 -623.30957031 1012.84432983 C-622.07024435 1014.09022918 -622.07024435 1014.09022918 -620.8058815 1015.3612982 C-618.5422449 1017.63587479 -616.27646426 1019.90828808 -614.00965691 1022.17970395 C-611.5539246 1024.64145792 -609.10098321 1027.10599062 -606.64758301 1029.57006836 C-600.74299249 1035.49901295 -594.83360334 1041.42316284 -588.92329979 1047.34641165 C-587.25234165 1049.02109063 -585.58150946 1050.69589518 -583.91072083 1052.37074327 C-573.51464961 1062.79203205 -563.11698519 1073.21172842 -552.71453857 1083.62665367 C-550.31357895 1086.03054243 -547.91263566 1088.43444749 -545.51171875 1090.83837891 C-544.61673794 1091.7344788 -544.61673794 1091.7344788 -543.7036767 1092.64868172 C-534.02166402 1102.34336976 -524.34999207 1112.04830725 -514.68246317 1121.75743632 C-504.73946263 1131.74286934 -494.78704714 1141.71884058 -484.82542038 1151.68569243 C-479.23928986 1157.27523273 -473.65737958 1162.86884979 -468.08605957 1168.47315598 C-463.34659066 1173.24064274 -458.59868611 1177.99952085 -453.83959579 1182.74742429 C-451.4138467 1185.16799381 -448.99228614 1187.59238954 -446.58155823 1190.0279274 C-443.96260545 1192.66953448 -441.32865914 1195.29523704 -438.69042969 1197.91757202 C-437.56000433 1199.06882051 -437.56000433 1199.06882051 -436.4067421 1200.24332654 C-429.80602052 1206.74658866 -422.88438345 1210.49190264 -413.55078125 1211.1015625 C-401.99059862 1210.64127958 -394.61994656 1203.96806595 -387 1196 C-390.12883853 1192.76686685 -393.38763069 1189.7405185 -396.75 1186.75 C-398.503248 1185.17026398 -400.25329191 1183.58696417 -402 1182 C-403.11955078 1180.98292969 -403.11955078 1180.98292969 -404.26171875 1179.9453125 C-422.27769325 1162.80264377 -433.50793438 1139.73129605 -440 1116 C-440.19062012 1115.32710937 -440.38124023 1114.65421875 -440.57763672 1113.9609375 C-449.65779193 1080.30636796 -441.72244518 1041.76294967 -425.10644531 1011.88330078 C-418.33044539 1000.34974752 -409.55819526 990.30666381 -400 981 C-399.53851562 980.49339844 -399.07703125 979.98679687 -398.6015625 979.46484375 C-376.7203909 956.03597952 -340.75058492 944.10981518 -309.5078125 942.77734375 C-292.70824714 942.32634871 -275.92527624 944.58030056 -260 950 C-258.98550781 950.33515625 -257.97101563 950.6703125 -256.92578125 951.015625 C-232.03748 959.88422921 -206.87669354 976.68495968 -192 999 C-188.62465725 997.62721909 -187.3367265 996.4223063 -185.8125 993.125 C-185.32716797 992.10792969 -185.32716797 992.10792969 -184.83203125 991.0703125 C-181.69009287 983.25234375 -182.3763418 975.63972598 -185.51470327 967.90903825 C-187.07757484 964.84806525 -188.79125282 962.71202708 -191.12412262 960.19757557 C-191.92728063 959.3301157 -192.73043863 958.46265582 -193.55793476 957.56890929 C-197.18314069 953.75540544 -200.85557217 949.9963322 -204.57653809 946.27629089 C-205.39050474 945.45864755 -206.20447139 944.64100422 -207.04310369 943.79858381 C-209.74188783 941.08888101 -212.44415088 938.38267642 -215.14648438 935.67651367 C-217.09421945 933.72302744 -219.04124985 931.76883932 -220.98835754 929.81472778 C-226.80410263 923.97935623 -232.62457166 918.14870792 -238.44567513 912.3186824 C-240.6415684 910.11927322 -242.83714649 907.91954959 -245.03270832 905.71980956 C-254.72356934 896.01050788 -264.41577376 886.30254958 -274.11200714 876.59861279 C-276.47686199 874.23184843 -278.84171139 871.86507862 -281.20654297 869.49829102 C-281.794225 868.91012524 -282.38190703 868.32195947 -282.98739761 867.71597049 C-292.52251597 858.17253869 -302.04907454 848.62060951 -311.57212061 839.0651327 C-321.36781077 829.23635716 -331.17102901 819.41514146 -340.98167849 809.6012972 C-346.48264404 804.09816964 -351.98029224 798.59181619 -357.4695282 793.07698631 C-362.13947493 788.38531374 -366.81621686 783.70055015 -371.50189483 779.02458646 C-373.88991892 776.64109947 -376.273443 774.2535372 -378.65056801 771.85915184 C-381.23236265 769.25966402 -383.82624215 766.67285407 -386.42346191 764.08879089 C-387.16540597 763.33587759 -387.90735003 762.58296428 -388.67177725 761.80723542 C-395.75115068 754.81395945 -402.97983601 749.96848851 -413.125 749.6875 C-428.48245252 749.93224028 -437.55910033 761.41202113 -447.72370911 771.56980896 Z " fill="#002416" transform="translate(2780,1512)"/>
<path d="M0 0 C10.61174504 8.75898244 17.112111 27.31492368 22 40 C22.45890625 41.18207031 22.9178125 42.36414062 23.390625 43.58203125 C25.99786511 50.83047288 27.77819497 58.07414712 29.25 65.625 C29.41330811 66.45926514 29.57661621 67.29353027 29.74487305 68.15307617 C32.00727957 80.54990681 32.19808039 93.06246434 32.1796875 105.62890625 C32.1794137 106.8532648 32.1794137 106.8532648 32.17913437 108.10235786 C32.14864712 133.09388569 31.14819672 158.06870773 30.2623291 183.04119873 C30.03576232 189.46935155 29.81710867 195.89777296 29.59765625 202.32617188 C29.20675732 213.74303875 28.80704178 225.15957402 28.40246964 236.57596397 C28.1271837 244.35588618 27.85722783 252.13597205 27.5914402 259.91622448 C27.41502528 265.07027737 27.23627755 270.22424787 27.05712509 275.37820625 C26.97327841 277.80483201 26.890399 280.23149142 26.80856705 282.65818596 C26.69523007 286.01384144 26.57824294 289.36935192 26.46044922 292.72485352 C26.42861416 293.69381876 26.3967791 294.662784 26.36397934 295.66111183 C26.12010525 302.46211162 25.61598062 309.22292848 25 316 C25.78737549 316.15782959 26.57475098 316.31565918 27.38598633 316.47827148 C44.1083799 319.96556454 57.54415996 330.04636825 67.59765625 343.6640625 C70.55802119 348.59525534 73 354.1990244 73 360 C73.78503906 360.06058594 74.57007812 360.12117188 75.37890625 360.18359375 C84.41489362 360.90425532 84.41489362 360.90425532 88.4375 361.5625 C89.613125 361.706875 90.78875 361.85125 92 362 C92.97710938 362.14824219 93.95421875 362.29648438 94.9609375 362.44921875 C100.13564935 362.91361597 103.56621132 363.08777033 107.81640625 359.86328125 C110.41170677 357.0223187 112.73080114 354.10649684 115 351 C116.1433432 349.51890771 117.28896785 348.03957209 118.4375 346.5625 C118.99050781 345.83933594 119.54351563 345.11617187 120.11328125 344.37109375 C139.49286134 320.01621774 165.17692856 303.65423543 196.30371094 299.29296875 C223.17919351 296.37277868 245.89977649 302.43687277 267.3515625 318.79296875 C293.99893836 340.87356818 305.58047446 377.28848325 312 410 C312.24991699 411.25756104 312.24991699 411.25756104 312.50488281 412.54052734 C314.18071178 421.32041388 315.13773092 429.79143119 314.828125 438.7421875 C314.80928757 439.41348694 314.79045013 440.08478638 314.77104187 440.77642822 C314.67359733 444.1245534 314.52070204 447.44279997 314.2746582 450.78515625 C314.13121442 454.43348188 314.10804649 457.45616166 315 461 C317.334396 463.4635055 319.61185212 464.94605218 322.56176758 466.60791016 C325.58463523 468.33379294 326.95177992 470.1920359 328.5625 473.25 C329.01753906 474.08015625 329.47257812 474.9103125 329.94140625 475.765625 C333.36134024 482.98408347 333.05612173 491.80866489 331.12890625 499.45703125 C326.5983567 511.74150496 319.95613811 521.56321047 311 531 C309.84827709 532.34916112 308.70207082 533.70305904 307.5625 535.0625 C252.13211422 598.3391961 150.46596581 631.08303896 54.37255859 644.58398438 C10.33462644 647.48045015 -41.17464355 645.36014252 -76.125 615.1640625 C-83.95702344 607.89570741 -89.22003194 598.77330884 -90 588 C-90.25422057 576.32174249 -86.65610779 566.7094649 -79 558 C-79.64066406 556.99324219 -80.28132813 555.98648438 -80.94140625 554.94921875 C-103.29734855 518.9664671 -107.47636093 472.10609979 -98.1875 431.1875 C-95.69989761 420.92922469 -92.00551229 411.32715206 -86.8203125 402.12109375 C-85.81414095 399.51942159 -86.00055332 398.57568845 -87 396 C-88.18325402 393.53866672 -89.46241808 391.14071351 -90.74609375 388.73046875 C-95.1974878 379.0372462 -95.80847845 367.20556758 -92.375 357.0625 C-89.24370279 349.7045048 -84.93621798 343.37086389 -79 338 C-78.484375 337.48050781 -77.96875 336.96101563 -77.4375 336.42578125 C-70.57663225 329.84585421 -57.72825607 321 -48 321 C-48.00638992 320.04508163 -48.01277985 319.09016327 -48.0193634 318.10630798 C-48.06582979 307.97598567 -47.82410116 297.87643371 -47.44921875 287.75390625 C-47.38984272 286.09234033 -47.33073854 284.43076467 -47.2718811 282.7691803 C-47.14570933 279.21994497 -47.01789592 275.67077411 -46.88882446 272.12164307 C-46.68333335 266.46387999 -46.48318339 260.80593516 -46.28393555 255.14794922 C-45.71694358 239.06731187 -45.14456108 222.98687276 -44.56347656 206.90673828 C-44.2417532 198.00253616 -43.92531588 189.09816069 -43.61419773 180.19358158 C-43.45039656 175.51205268 -43.28415603 170.83064402 -43.11117554 166.14944458 C-42.43192864 147.72940694 -41.87492669 129.31562787 -41.80339622 110.88181686 C-41.796579 109.17652268 -41.78679648 107.4712371 -41.77367592 105.76597977 C-41.64331561 86.57178264 -44.33962094 70.11588025 -53.4375 52.9375 C-54.21758423 51.45540039 -54.21758423 51.45540039 -55.01342773 49.94335938 C-62.34180947 36.31302895 -71.41565407 23.85398823 -80.75024414 11.54101562 C-84 7.21207484 -84 7.21207484 -84 5 C-81.16865674 4.05621891 -79.68981169 3.91378249 -76.78515625 4.0078125 C-62.05380992 4.31751237 -47.5024594 3.58692448 -32.8125 2.5625 C-31.82976105 2.49492493 -30.84702209 2.42734985 -29.83450317 2.35772705 C-26.99998848 2.16113416 -24.16594009 1.95903466 -21.33203125 1.75390625 C-20.05365387 1.66320107 -20.05365387 1.66320107 -18.74945068 1.57066345 C-12.51626588 1.10368818 -6.22624355 -0.55344387 0 0 Z " fill="#002315" transform="translate(2508,3032)"/>
<g id="eyes">
  <!-- Eye 1 -->
  <g transform="translate(2634.900390625,1849.921875)">
    <g transform="translate(-2, 127)">
      <g>
        <animateTransform attributeName="transform" type="scale" values="1 1; 1 1; 1 1; 1 0.1; 1 1" dur="0.8s" repeatCount="indefinite" additive="sum"/>
        <path d="M0 0 C37.02385929 -1.3475472 73.4529746 9.81743268 101.09960938 35.078125 C119.94575113 52.69829292 119.94575113 52.69829292 124.09960938 61.078125 C123.68055477 64.48900809 122.39658305 66.15830688 120.00761032 68.55602741 C119.34337421 69.22993686 118.6791381 69.90384631 117.99477363 70.59817725 C117.25792594 71.33037913 116.52107826 72.06258101 115.76190186 72.81697083 C114.98461676 73.60105259 114.20733166 74.38513436 113.40649247 75.19297618 C110.78888871 77.82963547 108.16060998 80.45538836 105.53222656 83.08129883 C103.65783499 84.96466253 101.78402722 86.84859164 99.91087341 88.73318481 C95.34325946 93.32572845 90.76732724 97.9098959 86.18806902 102.49082635 C82.46745764 106.21286238 78.74922355 109.93725656 75.03266144 113.6633358 C64.50130019 124.22111672 53.96367103 134.77258391 43.41796705 145.31603877 C42.84932992 145.88455603 42.28069278 146.4530733 41.69482422 147.03881836 C41.12549385 147.60802609 40.55616348 148.17723381 39.96958068 148.76369026 C30.73624147 157.99580924 21.51796889 167.24281158 12.30640492 176.49665276 C2.85380632 185.99229281 -6.60988227 195.47675337 -16.08532405 204.9496004 C-21.4073046 210.27058349 -26.72453562 215.59612385 -32.02988434 220.93369484 C-36.54552858 225.47658843 -41.07133486 230.00904052 -45.61082706 234.52810929 C-47.92796152 236.83541528 -50.23825206 239.14891403 -52.53911781 241.47245979 C-55.03077098 243.98708375 -57.54000294 246.48269919 -60.05474854 248.97419739 C-60.78267333 249.71755287 -61.51059813 250.46090836 -62.26058125 251.22678977 C-62.93524835 251.88766048 -63.60991545 252.54853119 -64.30502701 253.22942829 C-64.882799 253.80785239 -65.46057099 254.38627648 -66.05585122 254.98222858 C-67.90039062 256.078125 -67.90039062 256.078125 -70.44541335 255.87042636 C-91.16504383 249.18352481 -108.54415972 221.3259685 -117.88476562 203.11962891 C-132.31148436 174.12053707 -136.55128486 139.6706452 -128.90039062 108.078125 C-128.74473633 107.39991699 -128.58908203 106.72170898 -128.42871094 106.02294922 C-124.38536355 88.88512849 -116.51381003 72.12405901 -105.90039062 58.078125 C-105.25070313 57.20800781 -104.60101562 56.33789062 -103.93164062 55.44140625 C-93.74856975 42.42759365 -81.90311301 30.88592105 -67.90039062 22.078125 C-67.29678711 21.69462891 -66.69318359 21.31113281 -66.07128906 20.91601562 C-49.43293138 10.52030706 -31.21385357 4.21256472 -11.90039062 1.078125 C-10.99675781 0.92730469 -10.093125 0.77648438 -9.16210938 0.62109375 C-6.10832062 0.22552526 -3.07433342 0.12638575 0 0 Z " fill="#000000" transform="translate(2, -127)"/>
      </g>
    </g>
</g>
  </g>
  <!-- Eye 2 -->
  <g transform="translate(2520,2461)">
    <g transform="translate(-56, 120)">
      <g>
        <animateTransform attributeName="transform" type="scale" values="1 1; 1 1; 1 1; 1 0.1; 1 1" dur="0.8s" repeatCount="indefinite" additive="sum"/>
        <path d="M0 0 C1.52173828 0.50273437 1.52173828 0.50273437 3.07421875 1.015625 C28.20550332 9.97081298 50.34768003 26.16967861 67 47 C67.70280318 48.65175359 68.37594274 50.31691511 69 52 C44.3882255 76.74900801 19.76074037 101.4822669 -4.88803379 126.19442577 C-7.79583138 129.1097279 -10.70349811 132.02516053 -13.61108398 134.94067383 C-14.1899517 135.5211154 -14.76881941 136.10155698 -15.36522857 136.6995877 C-24.74670375 146.10719446 -34.11752959 155.52534079 -43.48448517 164.94740195 C-53.09095547 174.60991557 -62.70872929 184.26106804 -72.33716422 193.90169519 C-78.28152626 199.85430364 -84.2168183 205.81567186 -90.14093319 211.78843199 C-94.20021798 215.87935136 -98.27039665 219.95921569 -102.34943261 224.03044087 C-104.70513518 226.38228758 -107.05377256 228.74021651 -109.3931427 231.10837555 C-111.92645191 233.67133486 -114.47736175 236.21534295 -117.03373718 238.75526428 C-117.77401694 239.51302109 -118.51429671 240.2707779 -119.27700919 241.05149704 C-120.30561017 242.06217858 -120.30561017 242.06217858 -121.35499096 243.09327793 C-121.94241831 243.6829836 -122.52984566 244.27268928 -123.13507384 244.88026482 C-125 246 -125 246 -127.5393365 245.83206075 C-131.17908404 244.60129877 -133.55317786 242.12842158 -136.25 239.5 C-136.82282715 238.9531958 -137.3956543 238.4063916 -137.98583984 237.84301758 C-139.13704848 236.74040835 -140.28410714 235.63344819 -141.42675781 234.52197266 C-142.75309809 233.23885576 -144.10434027 231.98155286 -145.4609375 230.73046875 C-163.42926414 213.76758999 -174.55825839 190.54734011 -181 167 C-181.19062012 166.32710937 -181.38124023 165.65421875 -181.57763672 164.9609375 C-190.65779193 131.30636796 -182.72244518 92.76294967 -166.10644531 62.88330078 C-161.03299771 54.24769292 -154.85645709 46.47449398 -148.0078125 39.18359375 C-145.93605941 36.98333463 -145.93605941 36.98333463 -143.953125 34.421875 C-124.90495234 10.8021409 -89.49076918 -3.05796853 -60.19946289 -6.48242188 C-39.90429995 -8.50384267 -19.34356174 -6.58301238 0 0 Z " fill="#000000" transform="translate(56, -120)"/>
      </g>
    </g>
    </g>
  </g>
  <g id="lower-body">
<g id="left-leg-unit" transform="translate(2820, 3501)">
    <g id="left-leg-and-shoe-assembly">
      <animateTransform attributeName="transform" type="rotate" values="45 -150 80; 0 -150 80; -45 -150 80; 0 -150 80; 45 -150 80" dur="0.8s" repeatCount="indefinite"/>
      <path class="left-leg" d="M0 0 C5.90637334 2.09389824 8.4786086 5.69168201 11.8125 10.75 C14.99262524 19.45350066 12.6002687 27.7708144 9 36 C0.12411588 52.97995222 -15.00656752 67.46332777 -30 79 C-30.66112793 79.51046875 -31.32225586 80.0209375 -32.00341797 80.546875 C-95.703784 129.39571113 -186.26481287 167.83965041 -267.7890625 168.203125 C-269.31954727 168.21167511 -269.31954727 168.21167511 -270.88095093 168.22039795 C-273.03748556 168.22980267 -275.19403427 168.23636381 -277.35058594 168.24023438 C-280.56733189 168.24982801 -283.78340657 168.2808484 -287 168.3125 C-320.12532342 168.48252598 -358.64283477 163.58605148 -384 140 C-391.89234785 131.64689361 -394.6811538 123.69535211 -394.42578125 112.23046875 C-393.58353256 105.84019661 -390.73896187 100.36373615 -386 96 C-382.88473279 97.26918294 -380.90407705 99.00870038 -378.57421875 101.39453125 C-354.12209056 126.33206149 -318.70997725 134.59172646 -284.77807617 135.40429688 C-221.83105746 135.98638667 -159.8600785 115.30165331 -103 90 C-101.94264648 89.5344873 -100.88529297 89.06897461 -99.79589844 88.58935547 C-75.31127315 77.78957167 -50.27062235 65.75253262 -30 48 C-28.72382813 46.94039062 -28.72382813 46.94039062 -27.421875 45.859375 C-13.12375384 33.66649867 -4.80192779 17.95503435 0 0 Z " fill="#DBEBD1"/>
      <!-- Nested left foot -->
      <g transform="translate(-288, -145)">
        <g>
          <animateTransform attributeName="transform" type="rotate" values="0 0 40; 20 0 40; 0 0 40; -25 0 40; 0 0 40" dur="0.8s" repeatCount="indefinite"/>
          <path class="left-foot" d="M0 0 C7.46098731 0.9163303 7.46098731 0.9163303 10.90234375 2.6015625 C11.56105469 2.92294189 12.21976563 3.24432129 12.8984375 3.57543945 C13.57132813 3.92179443 14.24421875 4.26814941 14.9375 4.625 C15.64261719 4.9861792 16.34773438 5.3473584 17.07421875 5.71948242 C27.3643727 11.14682404 36.72230848 19.87800206 41 31 C42.07908993 40.01892001 41.41481371 47.57606989 36 55 C26.20990513 66.90097035 13.1619643 73.55547703 -1 79 C-2.12535156 79.44214844 -3.25070313 79.88429688 -4.41015625 80.33984375 C-30.24307864 89.75183873 -62.67230397 93.06692737 -88.31640625 81.4453125 C-92.66228108 79.10473945 -96.36647942 76.32952085 -100 73 C-100.84691406 72.23429687 -100.84691406 72.23429687 -101.7109375 71.453125 C-107.85658688 65.15149468 -111.22768753 56.03887697 -111.5 47.3125 C-110.81451408 35.18467219 -105.58779248 26.07815662 -96.8125 17.8125 C-90.33263045 12.33295337 -80.81942703 5 -72 5 C-72.02094727 5.82089111 -72.04189453 6.64178223 -72.06347656 7.48754883 C-72.1323958 10.58695174 -72.18215621 13.68595915 -72.21972656 16.78588867 C-72.24930134 18.76572908 -72.30017533 20.74521501 -72.3515625 22.72460938 C-72.46639437 34.06425614 -70.41897691 43.14538984 -63.0625 51.9921875 C-59.50805624 55.45238465 -55.43415233 57.82569701 -51 60 C-50.24203125 60.37511719 -49.4840625 60.75023438 -48.703125 61.13671875 C-40.20491775 63.85074159 -28.60529022 62.98009999 -20.4921875 59.44140625 C-10.80078301 53.83618955 -4.88328826 45.93458627 -1.45361328 35.30688477 C-0.80665174 32.01671277 -0.76323989 28.7322595 -0.68359375 25.390625 C-0.6524221 24.30041046 -0.6524221 24.30041046 -0.62062073 23.18817139 C-0.55544488 20.87554009 -0.4963896 18.56279907 -0.4375 16.25 C-0.39428434 14.67837425 -0.35066908 13.10675944 -0.30664062 11.53515625 C-0.19979644 7.69021547 -0.09843976 3.84516476 0 0 Z " fill="#DAEACF"/>
        </g>
      </g>
    </g>
  </g>
<g id="right-leg-unit" transform="translate(1713.078125, 2981.66796875)">
    <g id="right-leg-and-shoe-assembly">
      <animateTransform attributeName="transform" type="rotate" values="-45 0 200; 0 0 200; 45 0 200; 0 0 200; -45 0 200" dur="0.8s" repeatCount="indefinite"/>
      <path class="right-leg" d="M0 0 C5.672606 3.93162326 10.69811496 8.15315784 13.921875 14.33203125 C14.015625 17.01171875 14.015625 17.01171875 13.921875 19.33203125 C13.05949219 19.51636719 12.19710938 19.70070313 11.30859375 19.890625 C-25.24437863 28.57533333 -50.87262308 54.27144314 -70.078125 85.33203125 C-84.80168675 109.581657 -96.08332505 136.53829189 -103.43164062 163.9296875 C-103.89616225 165.65585549 -104.36992246 167.37954719 -104.84960938 169.1015625 C-121.63850315 229.44765619 -144.2254118 323.58684686 -111.82836914 381.62768555 C-107.68911032 388.58692108 -102.79631199 394.58680792 -97.078125 400.33203125 C-100.65096623 404.06727435 -102.89604151 404.56786998 -108.078125 404.76953125 C-116.39421948 404.66867454 -121.34942046 401.97260277 -127.2265625 396.234375 C-140.67548439 380.80160831 -145.56062254 358.80281494 -148.890625 339.20703125 C-149.09768066 337.99329834 -149.30473633 336.77956543 -149.51806641 335.52905273 C-152.05930114 319.55909442 -152.24299971 303.62796576 -152.20849609 287.49487305 C-152.20315047 284.5336389 -152.20846972 281.57255763 -152.21484375 278.61132812 C-152.22422886 259.79233504 -151.38447808 241.29512417 -148.828125 222.64453125 C-148.71763824 221.824758 -148.60715149 221.00498474 -148.49331665 220.16036987 C-146.58825663 206.08926344 -144.31183386 192.16642181 -141.078125 178.33203125 C-140.80661621 177.1625293 -140.53510742 175.99302734 -140.25537109 174.78808594 C-129.94753488 131.13203748 -114.22488373 88.13117317 -88.078125 51.33203125 C-87.32789063 50.275 -86.57765625 49.21796875 -85.8046875 48.12890625 C-81.3123826 41.98154166 -76.47663008 36.30111824 -71.2890625 30.73046875 C-69.59206841 28.88955997 -68.00082852 27.04522564 -66.453125 25.08203125 C-52.10030071 8.46297154 -22.43843734 -12.30635226 0 0 Z " fill="#DCECD1"/>
      <!-- Nested right foot -->
      <g transform="translate(187.238, 102.73)">
        <g>
          <animateTransform attributeName="transform" type="rotate" values="-25 0 35; 0 0 35; 20 0 35; 0 0 35; -25 0 35" dur="0.8s" repeatCount="indefinite"/>
          <path class="right-foot" d="M0 0 C9.64706799 5.75734771 16.04829151 13.73198812 18.82421875 24.71484375 C19.96140035 30.24759212 20.02553248 35.71984385 19.99609375 41.3515625 C19.99335449 42.40617676 19.99061523 43.46079102 19.98779297 44.54736328 C19.73322836 63.55192789 19.73322836 63.55192789 14.68359375 68.6015625 C12.34220832 66.31800004 10.01192393 64.02342876 7.68359375 61.7265625 C7.01585937 61.07558594 6.348125 60.42460937 5.66015625 59.75390625 C5.02851562 59.12871094 4.396875 58.50351563 3.74609375 57.859375 C3.15957031 57.2833252 2.57304688 56.70727539 1.96875 56.11376953 C0.68359375 54.6015625 0.68359375 54.6015625 0.68359375 52.6015625 C0.14605469 52.33472656 -0.39148437 52.06789063 -0.9453125 51.79296875 C-2.68844769 50.91709357 -4.42444155 50.02696923 -6.15625 49.12890625 C-7.17847656 48.60425781 -8.20070313 48.07960938 -9.25390625 47.5390625 C-10.27355469 47.01183594 -11.29320312 46.48460938 -12.34375 45.94140625 C-20.29129667 42.35926629 -30.39727763 42.17255061 -38.56640625 45.1640625 C-47.75773084 49.44638419 -54.10090905 55.31364735 -58.31640625 64.6015625 C-61.83458546 75.04691527 -61.7569892 85.83707309 -56.98046875 95.84375 C-54.04330158 100.71144957 -50.28606359 104.56604357 -46.31640625 108.6015625 C-44.82025085 110.21718664 -43.33861742 111.84544646 -41.85668945 113.47412109 C-36.50371618 119.34720415 -31.00057129 125.04658303 -25.31640625 130.6015625 C-31.60250598 137.91048524 -43.64406933 139.92177896 -52.80859375 140.85546875 C-60.12475209 141.20874119 -66.60239735 139.61963857 -72.359375 134.94140625 C-81.8833513 125.0519042 -83.74758966 110.02807009 -83.75512695 96.84082031 C-82.93883311 67.95465182 -71.47071623 38.88658546 -53.31640625 16.6015625 C-52.56810547 15.60769531 -52.56810547 15.60769531 -51.8046875 14.59375 C-39.51723694 -1.10883724 -18.47038145 -8.97204418 0 0 Z " fill="#DBEBD1"/>
        </g>
      </g>
    </g>
  </g>
</g>
</g>
<g id="loading-floor">
  <!-- Ground Shadow -->
  <ellipse cx="2500" cy="3650" rx="400" ry="60" fill="rgba(0,36,22,0.15)">
    <animate attributeName="rx" values="400; 250; 400; 250; 400" dur="0.8s" repeatCount="indefinite" />
    <animate attributeName="opacity" values="0.15; 0.05; 0.15; 0.05; 0.15" dur="0.8s" repeatCount="indefinite" />
  </ellipse>
  <!-- Speed Lines -->
  <g stroke="#002416" stroke-width="20" stroke-linecap="round" opacity="0.4">
    <line x1="3500" y1="3450" x2="3800" y2="3450">
      <animate attributeName="x1" values="3500; 500" dur="0.4s" repeatCount="indefinite" />
      <animate attributeName="x2" values="3800; 800" dur="0.4s" repeatCount="indefinite" />
    </line>
    <line x1="3200" y1="3600" x2="3600" y2="3600">
      <animate attributeName="x1" values="4000; 0" dur="0.6s" repeatCount="indefinite" />
      <animate attributeName="x2" values="4400; 400" dur="0.6s" repeatCount="indefinite" />
    </line>
    <line x1="2800" y1="3750" x2="3000" y2="3750">
      <animate attributeName="x1" values="3800; -200" dur="0.3s" repeatCount="indefinite" />
      <animate attributeName="x2" values="4000; 0" dur="0.3s" repeatCount="indefinite" />
    </line>
  </g>
</g>
</svg>
